# xmcd
#
# Track frame offsets:
#	150
#	20550
#	44085
#	64625
#	85910
#	106115
#	118832
#	135822
#	160112
#	174142
#	193012
#	206902
#	230670
#
# Disc length: 3491 seconds
#
# Revision: 0
# Processed by: cddbd v1.4PL0 Copyright (c) Steve Scherf et al.
# Submitted via: dBpowerAMP V4.0
#
DISCID=ab0da10d
DTITLE=Snooks Eaglin - The Way it Is
DYEAR=1900
DGENRE=Blues
TTITLE0=Can You Hear Me?
TTITLE1=Boogie Rambler
TTITLE2=Lock Doctor
TTITLE3=Trees
TTITLE4=I Dont Speak Espanol
TTITLE5=A Mothers Love
TTITLE6=Ghost of a Chance
TTITLE7=Express Yourself
TTITLE8=I Done Got Over It
TTITLE9=The Chokin Kind
TTITLE10=Cubano Mambo
TTITLE11=Looking Back
TTITLE12=Ive Been Around the World
EXTD=
EXTT0=
EXTT1=
EXTT2=
EXTT3=
EXTT4=
EXTT5=
EXTT6=
EXTT7=
EXTT8=
EXTT9=
EXTT10=
EXTT11=
EXTT12=
PLAYORDER=
